<mxfile host="app.diagrams.net" modified="2023-08-22T02:27:19.559Z" agent="Mozilla/5.0 (X11; Ubuntu; Linux x86_64; rv:109.0) Gecko/20100101 Firefox/115.0" version="21.6.8" etag="h_MSJzodlxaBue2dn0Ol" type="github">
  <diagram name="Halaman-1" id="c5KoUXX5YLwRogQBZLpq">
    <mxGraphModel>
      <root>
        <mxCell id="0" />
        <mxCell id="1" parent="0" />
      </root>
    </mxGraphModel>
  </diagram>
</mxfile>
